<svg aria-hidden="true" style="position: absolute; width: 0; height: 0; overflow: hidden;" version="1.1"
    xmlns="http://www.w3.org/2000/svg" xmlns:xlink="http://www.w3.org/1999/xlink">
    <defs>
        <symbol id="icon-arrow" viewBox="0 0 32 32">
            <path d="M0 16c0 8.837 7.163 16 16 16s16-7.163 16-16c0-8.837-7.163-16-16-16s-16 7.163-16 16z"></path>
            <path
                d="M10.395 16.514c-0.284-0.284-0.284-0.745 0-1.028l4.628-4.628c0.284-0.284 0.744-0.284 1.028 0s0.284 0.745 0 1.028l-4.114 4.114 4.114 4.114c0.284 0.284 0.284 0.744 0 1.029s-0.745 0.284-1.028 0l-4.628-4.628zM22.545 16.727h-11.636v-1.455h11.636v1.455z">
            </path>
        </symbol>
        <symbol id="icon-basket" viewBox="0 0 32 32">
            <path
                d="M1.5 12.8h29v-2.133h-29v2.133zM29.867 12.166v0.937h2.133v-0.937h-2.133zM26.423 29.867h-20.847v2.133h20.847v-2.133zM2.133 13.103v-0.937h-2.133v0.937h2.133zM6.178 30.238c-2.66-5.32-4.045-11.187-4.045-17.135h-2.133c0 6.281 1.461 12.474 4.271 18.091l1.907-0.956zM5.577 29.867c0.256 0 0.489 0.145 0.602 0.371l-1.907 0.956c0.121 0.242 0.308 0.446 0.538 0.588s0.496 0.218 0.767 0.218v-2.133zM25.822 30.238c0.056-0.112 0.142-0.206 0.248-0.271s0.229-0.1 0.354-0.1v2.133c0.555 0 1.058-0.312 1.306-0.806l-1.907-0.956zM29.867 13.103c0 5.948-1.387 11.814-4.045 17.135l1.907 0.956c2.809-5.617 4.271-11.811 4.271-18.091h-2.133zM30.5 12.8c-0.168 0-0.329-0.067-0.448-0.186s-0.186-0.28-0.186-0.448h2.133c0-0.398-0.158-0.779-0.439-1.060s-0.663-0.439-1.060-0.439v2.133zM1.5 10.667c-0.398 0-0.779 0.158-1.060 0.439s-0.439 0.663-0.439 1.060h2.133c0 0.168-0.067 0.329-0.186 0.448s-0.28 0.186-0.448 0.186v-2.133zM8.382 12.282l6.4-10.667-1.832-1.097-6.4 10.667 1.832 1.096zM17.218 1.615l6.4 10.667 1.83-1.096-6.4-10.667-1.83 1.097zM10.667 21.333h10.667v-2.133h-10.667v2.133z">
            </path>
        </symbol>
        <symbol id="icon-bone" viewBox="0 0 32 32">
            <path
                d="M31.794 15.015c0.365-0.828 0.166-2.046 0-2.954-0.129-0.772-0.449-1.409-0.929-1.97s-1.189-0.825-1.858-0.985c-0.531-0.137-1.329-0.147-1.858 0s-0.511 0.584-0.929 0.985c-1.043 0.95-2.387 1.018-3.716 0.985h-13.007c-1.33 0.033-2.674-0.034-3.716-0.985-0.418-0.401-0.4-0.838-0.929-0.985s-1.327-0.137-1.858 0c-0.669 0.16-1.379 0.425-1.858 0.985s-0.8 1.197-0.929 1.97c-0.166 0.908-0.365 2.127 0 2.954 0.132 0.298 0.929 0.65 0.929 0.985s-0.797 0.687-0.929 0.985c-0.364 0.828-0.165 2.046 0 2.954 0.129 0.773 0.45 1.409 0.929 1.97s1.189 0.823 1.858 0.985c0.531 0.137 1.329 0.147 1.858 0s0.511-0.584 0.929-0.985c1.042-0.952 2.386-1.016 3.716-0.985h13.007c1.33-0.031 2.674 0.033 3.716 0.985 0.418 0.401 0.4 0.838 0.929 0.985s1.327 0.137 1.858 0c0.669-0.162 1.379-0.424 1.858-0.985s0.8-1.197 0.929-1.97c0.165-0.908 0.364-2.127 0-2.954-0.132-0.298-0.929-0.65-0.929-0.985s0.797-0.687 0.929-0.985z">
            </path>
        </symbol>
        <symbol id="icon-check-mark" viewBox="0 0 32 32">
            <path
                d="M1.092 15.681c4.459 4.825 8.783 9.169 12.939 14.663 4.519-8.988 9.144-18.006 16.775-27.773l-2.056-0.942c-6.444 6.834-11.45 13.303-15.8 20.99-3.025-2.725-7.914-6.581-10.899-8.563l-0.959 1.625z">
            </path>
        </symbol>
        <symbol id="icon-dog" viewBox="0 0 32 32">
            <path
                d="M6.467 29.333v-12.8l-0.367-0.367c-0.244-0.245-0.433-0.533-0.567-0.867s-0.2-0.678-0.2-1.033c0-0.356 0.067-0.694 0.2-1.016s0.322-0.606 0.567-0.851l4.367-4.4h5.333l5.333-5.333 2.733 2.733c0.889 0.889 1.578 1.894 2.067 3.016s0.733 2.317 0.733 3.584c0 1.267-0.244 2.461-0.733 3.584s-1.178 2.127-2.067 3.016l-2.733 2.733v8h-14.667zM9.133 26.667h9.333v-6.433l3.5-3.5c0.645-0.645 1.145-1.367 1.5-2.167s0.533-1.656 0.533-2.567c0-0.889-0.184-1.733-0.551-2.533s-0.86-1.522-1.483-2.167l-0.833-0.867-4.233 4.233h-5.333l-0.767 0.767 2.233 2.233c0.622 0.622 1.106 1.339 1.451 2.149s0.516 1.662 0.516 2.551-0.167 1.739-0.5 2.551c-0.333 0.811-0.822 1.538-1.467 2.183l-3.9-3.9v7.467z">
            </path>
        </symbol>
        <symbol id="icon-email" viewBox="0 0 32 32">
            <path
                d="M16 29.333c-1.822 0-3.544-0.35-5.167-1.051s-3.039-1.655-4.249-2.867c-1.212-1.211-2.167-2.627-2.867-4.249s-1.051-3.345-1.051-5.167c0-1.845 0.35-3.572 1.051-5.183s1.655-3.023 2.867-4.233c1.211-1.212 2.627-2.168 4.249-2.868s3.344-1.049 5.167-1.049c1.845 0 3.572 0.35 5.183 1.049s3.023 1.656 4.233 2.868c1.212 1.211 2.167 2.622 2.867 4.233s1.051 3.338 1.051 5.183v1.933c0 1.311-0.45 2.428-1.349 3.349s-2.006 1.384-3.317 1.384c-0.8 0-1.544-0.178-2.233-0.533s-1.256-0.822-1.7-1.4c-0.6 0.6-1.305 1.073-2.116 1.417-0.812 0.344-1.684 0.516-2.617 0.516-1.844 0-3.416-0.65-4.716-1.951s-1.951-2.872-1.951-4.716c0-1.845 0.65-3.417 1.951-4.717s2.872-1.949 4.716-1.949c1.845 0 3.417 0.65 4.717 1.949 1.299 1.3 1.949 2.873 1.949 4.717v1.933c0 0.645 0.2 1.15 0.6 1.516s0.867 0.551 1.4 0.551 1-0.184 1.4-0.551c0.4-0.366 0.6-0.872 0.6-1.516v-1.933c0-2.911-1.050-5.417-3.151-7.517-2.099-2.1-4.605-3.149-7.516-3.149s-5.417 1.050-7.517 3.149c-2.1 2.1-3.149 4.606-3.149 7.517s1.050 5.416 3.149 7.516c2.1 2.1 4.606 3.151 7.517 3.151h6.667v2.667h-6.667zM16 20c1.111 0 2.056-0.389 2.833-1.167s1.167-1.722 1.167-2.833-0.389-2.056-1.167-2.833c-0.778-0.778-1.722-1.167-2.833-1.167s-2.056 0.389-2.833 1.167c-0.778 0.778-1.167 1.722-1.167 2.833s0.389 2.056 1.167 2.833c0.778 0.778 1.722 1.167 2.833 1.167z">
            </path>
        </symbol>
        <symbol id="icon-facebook" viewBox="0 0 32 32">
            <path
                d="M31.25 16c0-3.016-0.894-5.965-2.57-8.473s-4.057-4.463-6.844-5.617c-2.787-1.154-5.853-1.456-8.811-0.868s-5.675 2.041-7.808 4.173c-2.133 2.133-3.585 4.85-4.173 7.808s-0.286 6.024 0.868 8.811c1.154 2.787 3.109 5.168 5.617 6.844s5.456 2.57 8.473 2.57c4.043-0.004 7.92-1.612 10.779-4.471s4.467-6.736 4.471-10.779zM17.173 28.845v-9.326h3.519c0.311 0 0.61-0.124 0.829-0.343s0.343-0.518 0.343-0.829c0-0.311-0.124-0.61-0.343-0.829s-0.518-0.343-0.829-0.343h-3.519v-3.519c0-0.622 0.247-1.219 0.687-1.659s1.037-0.687 1.659-0.687h2.346c0.311 0 0.61-0.124 0.829-0.344s0.343-0.518 0.343-0.829c0-0.311-0.124-0.61-0.343-0.829s-0.518-0.344-0.829-0.344h-2.346c-1.243 0.004-2.435 0.499-3.314 1.379s-1.375 2.070-1.379 3.314v3.519h-3.519c-0.311 0-0.61 0.124-0.829 0.343s-0.344 0.518-0.344 0.829c0 0.311 0.124 0.61 0.344 0.829s0.518 0.343 0.829 0.343h3.519v9.326c-3.307-0.302-6.37-1.867-8.553-4.37s-3.316-5.751-3.165-9.068c0.151-3.317 1.575-6.449 3.976-8.742s5.594-3.574 8.914-3.574 6.514 1.28 8.914 3.574c2.401 2.294 3.825 5.425 3.976 8.742s-0.982 6.565-3.165 9.068-5.246 4.068-8.553 4.37z">
            </path>
        </symbol>
        <symbol id="icon-instagram" viewBox="0 0 32 32">
            <path stroke-linejoin="round" stroke-linecap="round" stroke-miterlimit="4" stroke-width="2.1"
                d="M16 22c1.591 0 3.117-0.632 4.243-1.757s1.757-2.651 1.757-4.243c0-1.591-0.632-3.117-1.757-4.243s-2.651-1.757-4.243-1.757-3.117 0.632-4.243 1.757c-1.125 1.125-1.757 2.651-1.757 4.243s0.632 3.117 1.757 4.243c1.125 1.125 2.651 1.757 4.243 1.757z">
            </path>
            <path stroke-linejoin="miter" stroke-linecap="butt" stroke-miterlimit="4" stroke-width="2.1"
                d="M2.5 22v-12c0-1.989 0.79-3.897 2.197-5.303s3.314-2.197 5.303-2.197h12c1.989 0 3.897 0.79 5.303 2.197s2.197 3.314 2.197 5.303v12c0 1.989-0.79 3.897-2.197 5.303s-3.314 2.197-5.303 2.197h-12c-1.989 0-3.897-0.79-5.303-2.197s-2.197-3.314-2.197-5.303z">
            </path>
            <path stroke-linejoin="round" stroke-linecap="round" stroke-miterlimit="4" stroke-width="2.1"
                d="M24.25 7.766l0.016-0.017"></path>
        </symbol>
        <symbol id="icon-people" viewBox="0 0 32 32">
            <path
                d="M11.384 9.714c0-1.125 0.446-2.204 1.241-3s1.872-1.243 2.995-1.243c1.123 0 2.201 0.447 2.995 1.243s1.241 1.875 1.241 3-0.446 2.204-1.241 3c-0.794 0.796-1.872 1.243-2.995 1.243s-2.2-0.447-2.995-1.243c-0.794-0.796-1.241-1.875-1.241-3zM15.619 3.048c-1.765 0-3.458 0.702-4.706 1.953s-1.949 2.946-1.949 4.714 0.701 3.464 1.949 4.714c1.248 1.25 2.941 1.953 4.706 1.953s3.458-0.702 4.706-1.953c1.248-1.25 1.949-2.946 1.949-4.714s-0.701-3.464-1.949-4.714c-1.248-1.25-2.941-1.953-4.706-1.953zM5.333 22.442c0-0.964 0.382-1.889 1.063-2.571s1.604-1.065 2.567-1.065h13.311c0.963 0 1.886 0.383 2.567 1.065s1.063 1.607 1.063 2.571v0.274c-0.002 0.113-0.010 0.226-0.024 0.338-0.024 0.21-0.069 0.494-0.157 0.831-0.232 0.889-0.644 1.721-1.209 2.445-1.416 1.821-4.079 3.384-8.895 3.384s-7.478-1.564-8.895-3.384c-0.565-0.724-0.977-1.556-1.21-2.445-0.092-0.357-0.152-0.721-0.177-1.088-0.001-0.027-0.002-0.054-0.002-0.081v-0.028l-0.001-0.010v-0.236zM7.753 22.657v0.015c0.017 0.204 0.051 0.406 0.103 0.604 0.109 0.422 0.33 0.991 0.776 1.565 0.853 1.096 2.728 2.45 6.987 2.45s6.135-1.354 6.987-2.448c0.362-0.464 0.625-0.997 0.774-1.566 0.052-0.198 0.087-0.4 0.104-0.604l0.001-0.015v-0.216c0-0.321-0.128-0.63-0.354-0.857s-0.535-0.355-0.856-0.355h-13.312c-0.321 0-0.629 0.128-0.856 0.355s-0.354 0.536-0.354 0.857v0.216z">
            </path>
        </symbol>
        <symbol id="icon-phone" viewBox="0 0 32 32">
            <path
                d="M27.833 29.333c-3.467 0-6.728-0.656-9.783-1.967s-5.723-3.105-8-5.383c-2.278-2.278-4.078-4.945-5.4-8s-1.984-6.328-1.984-9.817c-0.022-0.4 0.111-0.75 0.4-1.051s0.644-0.449 1.067-0.449h5.2c0.4 0 0.744 0.15 1.033 0.449s0.433 0.662 0.433 1.084c0 0.978 0.067 1.9 0.2 2.767s0.345 1.689 0.633 2.467c0.111 0.244 0.133 0.494 0.067 0.749s-0.2 0.495-0.4 0.717l-3.333 3.333c0.956 1.956 2.311 3.811 4.067 5.567s3.644 3.156 5.667 4.2l3.333-3.333c0.2-0.2 0.433-0.333 0.7-0.4s0.533-0.044 0.8 0.067c0.822 0.267 1.672 0.472 2.549 0.616s1.784 0.217 2.717 0.217c0.422 0 0.784 0.155 1.084 0.467s0.449 0.689 0.449 1.133v5.1c0 0.4-0.145 0.744-0.433 1.033s-0.644 0.433-1.067 0.433zM20.167 25.333c1 0.378 2.044 0.678 3.133 0.9s2.211 0.367 3.367 0.433v-2.867c-0.689-0.044-1.394-0.122-2.116-0.233s-1.44-0.278-2.151-0.5l-2.233 2.267zM26.667 16c0-2.978-1.033-5.5-3.1-7.567s-4.589-3.1-7.567-3.1v-2.667c1.845 0 3.578 0.35 5.2 1.049s3.033 1.651 4.233 2.851 2.15 2.611 2.849 4.233c0.7 1.622 1.051 3.356 1.051 5.2h-2.667zM21.333 16c0-1.467-0.522-2.722-1.567-3.767s-2.3-1.567-3.767-1.567v-2.667c2.222 0 4.111 0.778 5.667 2.333s2.333 3.444 2.333 5.667h-2.667zM6.667 11.767l2.2-2.233c-0.178-0.644-0.328-1.322-0.451-2.033s-0.205-1.433-0.249-2.167h-2.8c0.044 1.067 0.178 2.133 0.4 3.2s0.522 2.144 0.9 3.233z">
            </path>
        </symbol>
        <symbol id="icon-burger" viewBox="0 0 46 32">
            <path
                d="M45.714 29.726c0 1.257-1.019 2.274-2.274 2.274h-18.309c-1.256 0-2.274-1.018-2.274-2.274s1.018-2.274 2.274-2.274h18.309c1.257 0 2.274 1.017 2.274 2.274zM45.714 16c0 1.257-1.019 2.274-2.274 2.274h-41.166c-1.256 0-2.274-1.018-2.274-2.274s1.018-2.274 2.274-2.274h41.166c1.257 0 2.274 1.019 2.274 2.274zM43.44 4.549c1.256 0 2.274-1.018 2.274-2.274s-1.018-2.274-2.274-2.274v0h-27.451c-1.256 0-2.274 1.018-2.274 2.274s1.018 2.274 2.274 2.274v0h27.451z">
            </path>
        </symbol>
    </defs>
</svg>