<svg aria-hidden="true" style="position: absolute; width: 0; height: 0; overflow: hidden;" version="1.1"
    xmlns="http://www.w3.org/2000/svg" xmlns:xlink="http://www.w3.org/1999/xlink">
    <defs>
        <symbol id="icon-arrow" viewBox="0 0 32 32">
            <path d="M0 16c0 8.837 7.163 16 16 16s16-7.163 16-16c0-8.837-7.163-16-16-16s-16 7.163-16 16z"></path>
            <path
                d="M10.395 16.514c-0.284-0.284-0.284-0.745 0-1.028l4.628-4.628c0.284-0.284 0.744-0.284 1.028 0s0.284 0.745 0 1.028l-4.114 4.114 4.114 4.114c0.284 0.284 0.284 0.744 0 1.029s-0.745 0.284-1.028 0l-4.628-4.628zM22.545 16.727h-11.636v-1.455h11.636v1.455z">
            </path>
        </symbol>
        <symbol id="icon-basket" viewBox="0 0 32 32">
            <path
                d="M1.5 12.8h29v-2.133h-29v2.133zM29.867 12.166v0.937h2.133v-0.937h-2.133zM26.423 29.867h-20.847v2.133h20.847v-2.133zM2.133 13.103v-0.937h-2.133v0.937h2.133zM6.178 30.238c-2.66-5.32-4.045-11.187-4.045-17.135h-2.133c0 6.281 1.461 12.474 4.271 18.091l1.907-0.956zM5.577 29.867c0.256 0 0.489 0.145 0.602 0.371l-1.907 0.956c0.121 0.242 0.308 0.446 0.538 0.588s0.496 0.218 0.767 0.218v-2.133zM25.822 30.238c0.056-0.112 0.142-0.206 0.248-0.271s0.229-0.1 0.354-0.1v2.133c0.555 0 1.058-0.312 1.306-0.806l-1.907-0.956zM29.867 13.103c0 5.948-1.387 11.814-4.045 17.135l1.907 0.956c2.809-5.617 4.271-11.811 4.271-18.091h-2.133zM30.5 12.8c-0.168 0-0.329-0.067-0.448-0.186s-0.186-0.28-0.186-0.448h2.133c0-0.398-0.158-0.779-0.439-1.060s-0.663-0.439-1.060-0.439v2.133zM1.5 10.667c-0.398 0-0.779 0.158-1.060 0.439s-0.439 0.663-0.439 1.060h2.133c0 0.168-0.067 0.329-0.186 0.448s-0.28 0.186-0.448 0.186v-2.133zM8.382 12.282l6.4-10.667-1.832-1.097-6.4 10.667 1.832 1.096zM17.218 1.615l6.4 10.667 1.83-1.096-6.4-10.667-1.83 1.097zM10.667 21.333h10.667v-2.133h-10.667v2.133z">
            </path>
        </symbol>
        <symbol id="icon-bone" viewBox="0 0 32 32">
            <path
                d="M31.794 15.015c0.365-0.828 0.166-2.046 0-2.954-0.129-0.772-0.449-1.409-0.929-1.97s-1.189-0.825-1.858-0.985c-0.531-0.137-1.329-0.147-1.858 0s-0.511 0.584-0.929 0.985c-1.043 0.95-2.387 1.018-3.716 0.985h-13.007c-1.33 0.033-2.674-0.034-3.716-0.985-0.418-0.401-0.4-0.838-0.929-0.985s-1.327-0.137-1.858 0c-0.669 0.16-1.379 0.425-1.858 0.985s-0.8 1.197-0.929 1.97c-0.166 0.908-0.365 2.127 0 2.954 0.132 0.298 0.929 0.65 0.929 0.985s-0.797 0.687-0.929 0.985c-0.364 0.828-0.165 2.046 0 2.954 0.129 0.773 0.45 1.409 0.929 1.97s1.189 0.823 1.858 0.985c0.531 0.137 1.329 0.147 1.858 0s0.511-0.584 0.929-0.985c1.042-0.952 2.386-1.016 3.716-0.985h13.007c1.33-0.031 2.674 0.033 3.716 0.985 0.418 0.401 0.4 0.838 0.929 0.985s1.327 0.137 1.858 0c0.669-0.162 1.379-0.424 1.858-0.985s0.8-1.197 0.929-1.97c0.165-0.908 0.364-2.127 0-2.954-0.132-0.298-0.929-0.65-0.929-0.985s0.797-0.687 0.929-0.985z">
            </path>
        </symbol>
        <symbol id="icon-check-mark" viewBox="0 0 32 32">
            <path
                d="M1.092 15.681c4.459 4.825 8.783 9.169 12.939 14.663 4.519-8.988 9.144-18.006 16.775-27.773l-2.056-0.942c-6.444 6.834-11.45 13.303-15.8 20.99-3.025-2.725-7.914-6.581-10.899-8.563l-0.959 1.625z">
            </path>
        </symbol>
        <symbol id="icon-dog" viewBox="0 0 32 32">
            <path
                d="M6.467 29.333v-12.8l-0.367-0.367c-0.244-0.245-0.433-0.533-0.567-0.867s-0.2-0.678-0.2-1.033c0-0.356 0.067-0.694 0.2-1.016s0.322-0.606 0.567-0.851l4.367-4.4h5.333l5.333-5.333 2.733 2.733c0.889 0.889 1.578 1.894 2.067 3.016s0.733 2.317 0.733 3.584c0 1.267-0.244 2.461-0.733 3.584s-1.178 2.127-2.067 3.016l-2.733 2.733v8h-14.667zM9.133 26.667h9.333v-6.433l3.5-3.5c0.645-0.645 1.145-1.367 1.5-2.167s0.533-1.656 0.533-2.567c0-0.889-0.184-1.733-0.551-2.533s-0.86-1.522-1.483-2.167l-0.833-0.867-4.233 4.233h-5.333l-0.767 0.767 2.233 2.233c0.622 0.622 1.106 1.339 1.451 2.149s0.516 1.662 0.516 2.551-0.167 1.739-0.5 2.551c-0.333 0.811-0.822 1.538-1.467 2.183l-3.9-3.9v7.467z">
            </path>
        </symbol>
        <symbol id="icon-email" viewBox="0 0 32 32">
            <path
                d="M16 29.333c-1.822 0-3.544-0.35-5.167-1.051s-3.039-1.655-4.249-2.867c-1.212-1.211-2.167-2.627-2.867-4.249s-1.051-3.345-1.051-5.167c0-1.845 0.35-3.572 1.051-5.183s1.655-3.023 2.867-4.233c1.211-1.212 2.627-2.168 4.249-2.868s3.344-1.049 5.167-1.049c1.845 0 3.572 0.35 5.183 1.049s3.023 1.656 4.233 2.868c1.212 1.211 2.167 2.622 2.867 4.233s1.051 3.338 1.051 5.183v1.933c0 1.311-0.45 2.428-1.349 3.349s-2.006 1.384-3.317 1.384c-0.8 0-1.544-0.178-2.233-0.533s-1.256-0.822-1.7-1.4c-0.6 0.6-1.305 1.073-2.116 1.417-0.812 0.344-1.684 0.516-2.617 0.516-1.844 0-3.416-0.65-4.716-1.951s-1.951-2.872-1.951-4.716c0-1.845 0.65-3.417 1.951-4.717s2.872-1.949 4.716-1.949c1.845 0 3.417 0.65 4.717 1.949 1.299 1.3 1.949 2.873 1.949 4.717v1.933c0 0.645 0.2 1.15 0.6 1.516s0.867 0.551 1.4 0.551 1-0.184 1.4-0.551c0.4-0.366 0.6-0.872 0.6-1.516v-1.933c0-2.911-1.050-5.417-3.151-7.517-2.099-2.1-4.605-3.149-7.516-3.149s-5.417 1.050-7.517 3.149c-2.1 2.1-3.149 4.606-3.149 7.517s1.050 5.416 3.149 7.516c2.1 2.1 4.606 3.151 7.517 3.151h6.667v2.667h-6.667zM16 20c1.111 0 2.056-0.389 2.833-1.167s1.167-1.722 1.167-2.833-0.389-2.056-1.167-2.833c-0.778-0.778-1.722-1.167-2.833-1.167s-2.056 0.389-2.833 1.167c-0.778 0.778-1.167 1.722-1.167 2.833s0.389 2.056 1.167 2.833c0.778 0.778 1.722 1.167 2.833 1.167z">
            </path>
        </symbol>
        <symbol id="icon-facebook" viewBox="0 0 32 32">
            <path
                d="M31.25 16c0-3.016-0.894-5.965-2.57-8.473s-4.057-4.463-6.844-5.617c-2.787-1.154-5.853-1.456-8.811-0.868s-5.675 2.041-7.808 4.173c-2.133 2.133-3.585 4.85-4.173 7.808s-0.286 6.024 0.868 8.811c1.154 2.787 3.109 5.168 5.617 6.844s5.456 2.57 8.473 2.57c4.043-0.004 7.92-1.612 10.779-4.471s4.467-6.736 4.471-10.779zM17.173 28.845v-9.326h3.519c0.311 0 0.61-0.124 0.829-0.343s0.343-0.518 0.343-0.829c0-0.311-0.124-0.61-0.343-0.829s-0.518-0.343-0.829-0.343h-3.519v-3.519c0-0.622 0.247-1.219 0.687-1.659s1.037-0.687 1.659-0.687h2.346c0.311 0 0.61-0.124 0.829-0.344s0.343-0.518 0.343-0.829c0-0.311-0.124-0.61-0.343-0.829s-0.518-0.344-0.829-0.344h-2.346c-1.243 0.004-2.435 0.499-3.314 1.379s-1.375 2.070-1.379 3.314v3.519h-3.519c-0.311 0-0.61 0.124-0.829 0.343s-0.344 0.518-0.344 0.829c0 0.311 0.124 0.61 0.344 0.829s0.518 0.343 0.829 0.343h3.519v9.326c-3.307-0.302-6.37-1.867-8.553-4.37s-3.316-5.751-3.165-9.068c0.151-3.317 1.575-6.449 3.976-8.742s5.594-3.574 8.914-3.574 6.514 1.28 8.914 3.574c2.401 2.294 3.825 5.425 3.976 8.742s-0.982 6.565-3.165 9.068-5.246 4.068-8.553 4.37z">
            </path>
        </symbol>
        <symbol id="icon-instagram" viewBox="0 0 32 32">
            <path stroke-linejoin="round" stroke-linecap="round" stroke-miterlimit="4" stroke-width="2.1"
                d="M16 22c1.591 0 3.117-0.632 4.243-1.757s1.757-2.651 1.757-4.243c0-1.591-0.632-3.117-1.757-4.243s-2.651-1.757-4.243-1.757-3.117 0.632-4.243 1.757c-1.125 1.125-1.757 2.651-1.757 4.243s0.632 3.117 1.757 4.243c1.125 1.125 2.651 1.757 4.243 1.757z">
            </path>
            <path stroke-linejoin="miter" stroke-linecap="butt" stroke-miterlimit="4" stroke-width="2.1"
                d="M2.5 22v-12c0-1.989 0.79-3.897 2.197-5.303s3.314-2.197 5.303-2.197h12c1.989 0 3.897 0.79 5.303 2.197s2.197 3.314 2.197 5.303v12c0 1.989-0.79 3.897-2.197 5.303s-3.314 2.197-5.303 2.197h-12c-1.989 0-3.897-0.79-5.303-2.197s-2.197-3.314-2.197-5.303z">
            </path>
            <path stroke-linejoin="round" stroke-linecap="round" stroke-miterlimit="4" stroke-width="2.1"
                d="M24.25 7.766l0.016-0.017"></path>
        </symbol>
        <symbol id="icon-people" viewBox="0 0 32 32">
            <path
                d="M11.384 9.714c0-1.125 0.446-2.204 1.241-3s1.872-1.243 2.995-1.243c1.123 0 2.201 0.447 2.995 1.243s1.241 1.875 1.241 3-0.446 2.204-1.241 3c-0.794 0.796-1.872 1.243-2.995 1.243s-2.2-0.447-2.995-1.243c-0.794-0.796-1.241-1.875-1.241-3zM15.619 3.048c-1.765 0-3.458 0.702-4.706 1.953s-1.949 2.946-1.949 4.714 0.701 3.464 1.949 4.714c1.248 1.25 2.941 1.953 4.706 1.953s3.458-0.702 4.706-1.953c1.248-1.25 1.949-2.946 1.949-4.714s-0.701-3.464-1.949-4.714c-1.248-1.25-2.941-1.953-4.706-1.953zM5.333 22.442c0-0.964 0.382-1.889 1.063-2.571s1.604-1.065 2.567-1.065h13.311c0.963 0 1.886 0.383 2.567 1.065s1.063 1.607 1.063 2.571v0.274c-0.002 0.113-0.010 0.226-0.024 0.338-0.024 0.21-0.069 0.494-0.157 0.831-0.232 0.889-0.644 1.721-1.209 2.445-1.416 1.821-4.079 3.384-8.895 3.384s-7.478-1.564-8.895-3.384c-0.565-0.724-0.977-1.556-1.21-2.445-0.092-0.357-0.152-0.721-0.177-1.088-0.001-0.027-0.002-0.054-0.002-0.081v-0.028l-0.001-0.010v-0.236zM7.753 22.657v0.015c0.017 0.204 0.051 0.406 0.103 0.604 0.109 0.422 0.33 0.991 0.776 1.565 0.853 1.096 2.728 2.45 6.987 2.45s6.135-1.354 6.987-2.448c0.362-0.464 0.625-0.997 0.774-1.566 0.052-0.198 0.087-0.4 0.104-0.604l0.001-0.015v-0.216c0-0.321-0.128-0.63-0.354-0.857s-0.535-0.355-0.856-0.355h-13.312c-0.321 0-0.629 0.128-0.856 0.355s-0.354 0.536-0.354 0.857v0.216z">
            </path>
        </symbol>
        <symbol id="icon-phone" viewBox="0 0 32 32">
            <path
                d="M27.833 29.333c-3.467 0-6.728-0.656-9.783-1.967s-5.723-3.105-8-5.383c-2.278-2.278-4.078-4.945-5.4-8s-1.984-6.328-1.984-9.817c-0.022-0.4 0.111-0.75 0.4-1.051s0.644-0.449 1.067-0.449h5.2c0.4 0 0.744 0.15 1.033 0.449s0.433 0.662 0.433 1.084c0 0.978 0.067 1.9 0.2 2.767s0.345 1.689 0.633 2.467c0.111 0.244 0.133 0.494 0.067 0.749s-0.2 0.495-0.4 0.717l-3.333 3.333c0.956 1.956 2.311 3.811 4.067 5.567s3.644 3.156 5.667 4.2l3.333-3.333c0.2-0.2 0.433-0.333 0.7-0.4s0.533-0.044 0.8 0.067c0.822 0.267 1.672 0.472 2.549 0.616s1.784 0.217 2.717 0.217c0.422 0 0.784 0.155 1.084 0.467s0.449 0.689 0.449 1.133v5.1c0 0.4-0.145 0.744-0.433 1.033s-0.644 0.433-1.067 0.433zM20.167 25.333c1 0.378 2.044 0.678 3.133 0.9s2.211 0.367 3.367 0.433v-2.867c-0.689-0.044-1.394-0.122-2.116-0.233s-1.44-0.278-2.151-0.5l-2.233 2.267zM26.667 16c0-2.978-1.033-5.5-3.1-7.567s-4.589-3.1-7.567-3.1v-2.667c1.845 0 3.578 0.35 5.2 1.049s3.033 1.651 4.233 2.851 2.15 2.611 2.849 4.233c0.7 1.622 1.051 3.356 1.051 5.2h-2.667zM21.333 16c0-1.467-0.522-2.722-1.567-3.767s-2.3-1.567-3.767-1.567v-2.667c2.222 0 4.111 0.778 5.667 2.333s2.333 3.444 2.333 5.667h-2.667zM6.667 11.767l2.2-2.233c-0.178-0.644-0.328-1.322-0.451-2.033s-0.205-1.433-0.249-2.167h-2.8c0.044 1.067 0.178 2.133 0.4 3.2s0.522 2.144 0.9 3.233z">
            </path>
        </symbol>
        <symbol id="icon-burger" viewBox="0 0 46 32">
            <path
                d="M45.714 29.726c0 1.257-1.019 2.274-2.274 2.274h-18.309c-1.256 0-2.274-1.018-2.274-2.274s1.018-2.274 2.274-2.274h18.309c1.257 0 2.274 1.017 2.274 2.274zM45.714 16c0 1.257-1.019 2.274-2.274 2.274h-41.166c-1.256 0-2.274-1.018-2.274-2.274s1.018-2.274 2.274-2.274h41.166c1.257 0 2.274 1.019 2.274 2.274zM43.44 4.549c1.256 0 2.274-1.018 2.274-2.274s-1.018-2.274-2.274-2.274v0h-27.451c-1.256 0-2.274 1.018-2.274 2.274s1.018 2.274 2.274 2.274v0h27.451z">
            </path>
        </symbol>
        <symbol id="icon-video" viewBox="0 0 35 32">
            <path
                d="M21.851 9.773c-0.012 0.126-0.089 0.264-0.265 0.404-1.73 1.373-3.46 2.745-5.19 4.118-0.369 0.293-1.246 0.361-1.246-0.328 0-2.54 0-5.080 0-7.62 0-0.624 0.941-0.778 1.317-0.524 1.73 1.167 3.46 2.335 5.19 3.502 0.198 0.134 0.242 0.294 0.194 0.448zM27.733 11.938c-0.548 13.146-22.702 10.423-20.298-3.416 1.009-5.807 5.83-8.861 11.128-8.493 5.963 0.414 9.061 5.839 9.169 11.822 0 0.015-0.010 0.028-0.012 0.042 0.002 0.016 0.013 0.027 0.012 0.045zM26.622 12.108c-0.090-4.235-1.592-8.809-5.467-10.629-5.136-2.413-11.186 0.433-12.491 6.296-1.167 5.244 1.429 9.894 6.178 11.576 5.063 1.793 11.503-1.028 11.78-7.243z">
            </path>
            <path
                d="M3.507 29.77v0.523h-2.427v-0.523h2.427zM1.207 25.44v4.853h-0.643v-4.853h0.643zM5.647 30.36c-0.251 0-0.479-0.042-0.683-0.127-0.202-0.087-0.377-0.208-0.523-0.363-0.144-0.156-0.256-0.34-0.333-0.553s-0.117-0.447-0.117-0.7v-0.14c0-0.293 0.043-0.554 0.13-0.783 0.087-0.231 0.204-0.427 0.353-0.587s0.318-0.281 0.507-0.363 0.384-0.123 0.587-0.123c0.258 0 0.48 0.044 0.667 0.133 0.189 0.089 0.343 0.213 0.463 0.373 0.12 0.158 0.209 0.344 0.267 0.56 0.058 0.213 0.087 0.447 0.087 0.7v0.277h-2.693v-0.503h2.077v-0.047c-0.009-0.16-0.042-0.316-0.1-0.467-0.056-0.151-0.144-0.276-0.267-0.373s-0.289-0.147-0.5-0.147c-0.14 0-0.269 0.030-0.387 0.090-0.118 0.058-0.219 0.144-0.303 0.26s-0.15 0.257-0.197 0.423c-0.047 0.167-0.070 0.359-0.070 0.577v0.14c0 0.171 0.023 0.332 0.070 0.483 0.049 0.149 0.119 0.28 0.21 0.393 0.093 0.113 0.206 0.202 0.337 0.267 0.133 0.064 0.284 0.097 0.453 0.097 0.218 0 0.402-0.044 0.553-0.133s0.283-0.208 0.397-0.357l0.373 0.297c-0.078 0.118-0.177 0.23-0.297 0.337s-0.268 0.193-0.443 0.26c-0.173 0.067-0.379 0.1-0.617 0.1zM9.897 29.677v-1.857c0-0.142-0.029-0.266-0.087-0.37-0.056-0.107-0.14-0.189-0.253-0.247s-0.253-0.087-0.42-0.087c-0.156 0-0.292 0.027-0.41 0.080-0.116 0.053-0.207 0.123-0.273 0.21-0.064 0.087-0.097 0.18-0.097 0.28h-0.617c0-0.129 0.033-0.257 0.1-0.383s0.162-0.241 0.287-0.343c0.127-0.104 0.278-0.187 0.453-0.247 0.178-0.062 0.376-0.093 0.593-0.093 0.262 0 0.493 0.044 0.693 0.133 0.202 0.089 0.36 0.223 0.473 0.403 0.116 0.178 0.173 0.401 0.173 0.67v1.68c0 0.12 0.010 0.248 0.030 0.383 0.022 0.136 0.054 0.252 0.097 0.35v0.053h-0.643c-0.031-0.071-0.056-0.166-0.073-0.283-0.018-0.12-0.027-0.231-0.027-0.333zM10.003 28.107l0.007 0.433h-0.623c-0.176 0-0.332 0.014-0.47 0.043-0.138 0.027-0.253 0.068-0.347 0.123s-0.164 0.126-0.213 0.21c-0.049 0.082-0.073 0.179-0.073 0.29 0 0.113 0.026 0.217 0.077 0.31s0.128 0.168 0.23 0.223c0.104 0.053 0.232 0.080 0.383 0.080 0.189 0 0.356-0.040 0.5-0.12s0.259-0.178 0.343-0.293c0.087-0.116 0.133-0.228 0.14-0.337l0.263 0.297c-0.016 0.093-0.058 0.197-0.127 0.31s-0.161 0.222-0.277 0.327c-0.113 0.102-0.249 0.188-0.407 0.257-0.156 0.067-0.331 0.1-0.527 0.1-0.244 0-0.459-0.048-0.643-0.143-0.182-0.096-0.324-0.223-0.427-0.383-0.1-0.162-0.15-0.343-0.15-0.543 0-0.193 0.038-0.363 0.113-0.51 0.076-0.149 0.184-0.272 0.327-0.37 0.142-0.1 0.313-0.176 0.513-0.227s0.423-0.077 0.67-0.077h0.717zM12.1 27.253v3.040h-0.617v-3.607h0.6l0.017 0.567zM13.227 26.667l-0.003 0.573c-0.051-0.011-0.1-0.018-0.147-0.020-0.044-0.004-0.096-0.007-0.153-0.007-0.142 0-0.268 0.022-0.377 0.067s-0.201 0.107-0.277 0.187-0.136 0.176-0.18 0.287c-0.042 0.109-0.070 0.229-0.083 0.36l-0.173 0.1c0-0.218 0.021-0.422 0.063-0.613 0.044-0.191 0.112-0.36 0.203-0.507 0.091-0.149 0.207-0.264 0.347-0.347 0.142-0.084 0.311-0.127 0.507-0.127 0.044 0 0.096 0.006 0.153 0.017 0.058 0.009 0.098 0.019 0.12 0.030zM14.413 27.457v2.837h-0.617v-3.607h0.583l0.033 0.77zM14.267 28.353l-0.257-0.010c0.002-0.247 0.039-0.474 0.11-0.683 0.071-0.211 0.171-0.394 0.3-0.55s0.282-0.276 0.46-0.36c0.18-0.087 0.379-0.13 0.597-0.13 0.178 0 0.338 0.024 0.48 0.073 0.142 0.047 0.263 0.122 0.363 0.227 0.102 0.104 0.18 0.24 0.233 0.407 0.053 0.164 0.080 0.366 0.080 0.603v2.363h-0.62v-2.37c0-0.189-0.028-0.34-0.083-0.453-0.056-0.116-0.137-0.199-0.243-0.25-0.107-0.053-0.238-0.080-0.393-0.080-0.153 0-0.293 0.032-0.42 0.097-0.124 0.064-0.232 0.153-0.323 0.267-0.089 0.113-0.159 0.243-0.21 0.39-0.049 0.144-0.073 0.298-0.073 0.46zM19.877 27.403v2.89h-0.62v-3.607h0.587l0.033 0.717zM19.75 28.353l-0.287-0.010c0.002-0.247 0.034-0.474 0.097-0.683 0.062-0.211 0.154-0.394 0.277-0.55s0.274-0.276 0.457-0.36c0.182-0.087 0.393-0.13 0.633-0.13 0.169 0 0.324 0.024 0.467 0.073 0.142 0.047 0.266 0.121 0.37 0.223s0.186 0.233 0.243 0.393 0.087 0.353 0.087 0.58v2.403h-0.617v-2.373c0-0.189-0.032-0.34-0.097-0.453-0.062-0.113-0.151-0.196-0.267-0.247-0.116-0.053-0.251-0.080-0.407-0.080-0.182 0-0.334 0.032-0.457 0.097s-0.22 0.153-0.293 0.267c-0.073 0.113-0.127 0.243-0.16 0.39-0.031 0.144-0.047 0.298-0.047 0.46zM22.087 28.013l-0.413 0.127c0.002-0.198 0.034-0.388 0.097-0.57 0.064-0.182 0.157-0.344 0.277-0.487 0.122-0.142 0.272-0.254 0.45-0.337 0.178-0.084 0.381-0.127 0.61-0.127 0.193 0 0.364 0.026 0.513 0.077 0.151 0.051 0.278 0.13 0.38 0.237 0.104 0.104 0.183 0.239 0.237 0.403s0.080 0.36 0.080 0.587v2.37h-0.62v-2.377c0-0.202-0.032-0.359-0.097-0.47-0.062-0.113-0.151-0.192-0.267-0.237-0.113-0.047-0.249-0.070-0.407-0.070-0.136 0-0.256 0.023-0.36 0.070s-0.192 0.111-0.263 0.193c-0.071 0.080-0.126 0.172-0.163 0.277-0.036 0.104-0.053 0.216-0.053 0.333zM25.087 28.53v-0.077c0-0.26 0.038-0.501 0.113-0.723 0.076-0.224 0.184-0.419 0.327-0.583 0.142-0.167 0.314-0.296 0.517-0.387 0.202-0.093 0.429-0.14 0.68-0.14 0.253 0 0.481 0.047 0.683 0.14 0.204 0.091 0.378 0.22 0.52 0.387 0.144 0.164 0.254 0.359 0.33 0.583 0.076 0.222 0.113 0.463 0.113 0.723v0.077c0 0.26-0.038 0.501-0.113 0.723s-0.186 0.417-0.33 0.583c-0.142 0.164-0.314 0.293-0.517 0.387-0.2 0.091-0.427 0.137-0.68 0.137s-0.481-0.046-0.683-0.137c-0.202-0.093-0.376-0.222-0.52-0.387-0.142-0.167-0.251-0.361-0.327-0.583s-0.113-0.463-0.113-0.723zM25.703 28.453v0.077c0 0.18 0.021 0.35 0.063 0.51 0.042 0.158 0.106 0.298 0.19 0.42 0.087 0.122 0.194 0.219 0.323 0.29 0.129 0.069 0.279 0.103 0.45 0.103 0.169 0 0.317-0.034 0.443-0.103 0.129-0.071 0.236-0.168 0.32-0.29s0.148-0.262 0.19-0.42c0.044-0.16 0.067-0.33 0.067-0.51v-0.077c0-0.178-0.022-0.346-0.067-0.503-0.042-0.16-0.107-0.301-0.193-0.423-0.084-0.124-0.191-0.222-0.32-0.293-0.127-0.071-0.276-0.107-0.447-0.107-0.169 0-0.318 0.036-0.447 0.107-0.127 0.071-0.233 0.169-0.32 0.293-0.084 0.122-0.148 0.263-0.19 0.423-0.042 0.158-0.063 0.326-0.063 0.503zM29.76 27.253v3.040h-0.617v-3.607h0.6l0.017 0.567zM30.887 26.667l-0.003 0.573c-0.051-0.011-0.1-0.018-0.147-0.020-0.044-0.004-0.096-0.007-0.153-0.007-0.142 0-0.268 0.022-0.377 0.067s-0.201 0.107-0.277 0.187c-0.076 0.080-0.136 0.176-0.18 0.287-0.042 0.109-0.070 0.229-0.083 0.36l-0.173 0.1c0-0.218 0.021-0.422 0.063-0.613 0.044-0.191 0.112-0.36 0.203-0.507 0.091-0.149 0.207-0.264 0.347-0.347 0.142-0.084 0.311-0.127 0.507-0.127 0.044 0 0.096 0.006 0.153 0.017 0.058 0.009 0.098 0.019 0.12 0.030zM32.887 30.36c-0.251 0-0.479-0.042-0.683-0.127-0.202-0.087-0.377-0.208-0.523-0.363-0.144-0.156-0.256-0.34-0.333-0.553s-0.117-0.447-0.117-0.7v-0.14c0-0.293 0.043-0.554 0.13-0.783 0.087-0.231 0.204-0.427 0.353-0.587s0.318-0.281 0.507-0.363 0.384-0.123 0.587-0.123c0.258 0 0.48 0.044 0.667 0.133 0.189 0.089 0.343 0.213 0.463 0.373 0.12 0.158 0.209 0.344 0.267 0.56 0.058 0.213 0.087 0.447 0.087 0.7v0.277h-2.693v-0.503h2.077v-0.047c-0.009-0.16-0.042-0.316-0.1-0.467-0.056-0.151-0.144-0.276-0.267-0.373s-0.289-0.147-0.5-0.147c-0.14 0-0.269 0.030-0.387 0.090-0.118 0.058-0.219 0.144-0.303 0.26s-0.15 0.257-0.197 0.423-0.070 0.359-0.070 0.577v0.14c0 0.171 0.023 0.332 0.070 0.483 0.049 0.149 0.119 0.28 0.21 0.393 0.093 0.113 0.206 0.202 0.337 0.267 0.133 0.064 0.284 0.097 0.453 0.097 0.218 0 0.402-0.044 0.553-0.133s0.283-0.208 0.397-0.357l0.373 0.297c-0.078 0.118-0.177 0.23-0.297 0.337s-0.268 0.193-0.443 0.26c-0.173 0.067-0.379 0.1-0.617 0.1z">
            </path>
        </symbol>
        <symbol id="icon-arrow-for-more" viewBox="0 0 32 32">
            <path
                d="M31.771 16.552c0.305-0.305 0.305-0.799 0-1.104l-4.967-4.967c-0.305-0.305-0.799-0.305-1.104 0s-0.305 0.799 0 1.104l4.415 4.415-4.415 4.415c-0.305 0.305-0.305 0.799 0 1.104s0.799 0.305 1.104 0l4.967-4.967zM0 16.78h31.22v-1.561h-31.22v1.561z">
            </path>
        </symbol>
        <symbol id="icon-bathing" viewBox="0 0 32 32">
            <path
                d="M22.772 14.919c-0.2-0.463-0.549-1.030-1.247-1.493-0.399-0.257-1.945-0.463-1.995 0.978 0 0-0.648 0.103-0.599 0.566 0 0-0.399 1.39 1.496 1.236 0 0 0.349 2.625 0.648 3.192 0 0 0.15 0.515 0.2 1.030h0.798l0.050-1.030c0 0 0.449 0.309 0.798 1.030h1.147c-0.050-0.412-0.1-0.772-0.2-1.030 0 0 1.696 0 2.294-0.772 0 0 0.499 0.978 1.097 1.030v0.824h0.798c0.050-0.154 0.050-0.309 0.1-0.566 0 0 0.299 0.154 0.449 0.566h0.698c-0.1-0.36-0.998-3.707-1.297-3.964 0 0 0.449-0.051 0.599 0.515 0 0 0.249 1.184 0.748 1.133 0 0 0.349-0.772-0.249-1.75 0 0-0.249-0.721-1.546-0.618l-3.741-0.103c-0.499-0.103-0.848-0.412-1.047-0.772z">
            </path>
            <path
                d="M18.233 10.955c0.299-0.412 0.249-1.030-0.15-1.39-0.399-0.309-0.998-0.257-1.347 0.154-0.948 1.236-2.644 1.441-3.841 0.927l-0.648 1.853c2.045 0.824 4.539 0.412 5.986-1.544z">
            </path>
            <path
                d="M9.753 7.712c1.35 0 2.444-1.129 2.444-2.522s-1.094-2.523-2.444-2.523-2.444 1.129-2.444 2.523c0 1.393 1.094 2.522 2.444 2.522z">
            </path>
            <path
                d="M11.2 20.994l-2.095-0.875 1.247-3.655c-2.793-1.596-3.791-4.118-3.841-4.273-0.299-0.772 0.050-1.596 0.798-1.905s1.546 0.051 1.846 0.824c0.050 0.103 0.648 1.441 2.195 2.523l0.948-2.677c0.1-0.309 0.050-0.618-0.15-0.875-1.796-2.059-3.891-2.831-6.185-2.111-0.648 0.206-1.097 0.721-1.247 1.39l-1.995 10.708c0 0.051 0 0.051 0 0.103s0 0.154 0 0.206l0.1 4.891-1.097-0.257c-0.748-0.154-1.546 0.36-1.696 1.133s0.349 1.596 1.097 1.75l2.843 0.618c0.449 0.103 0.848 0 1.197-0.309s0.549-0.721 0.499-1.184l-0.1-5.148 3.641 1.493v4.479c0 0.824 0.648 1.493 1.447 1.493s1.447-0.669 1.447-1.493v-5.457c0.050-0.618-0.349-1.133-0.898-1.39z">
            </path>
            <path
                d="M15.041 15.382c-4.739-0.36-6.235-3.912-6.285-4.067-0.2-0.515-0.748-0.721-1.247-0.515s-0.698 0.772-0.499 1.287c0.1 0.206 1.995 4.839 7.931 5.302 0.549 0.051 0.998-0.36 0.998-0.927s-0.349-1.030-0.898-1.081z">
            </path>
            <path
                d="M23.57 8.69c-0.998 0.206-1.746 1.133-1.746 2.214h4.439c0-1.184-0.848-2.111-1.945-2.265-1.496-1.699-3.891-1.030-5.786 0.669 0.1 0.103 0.2 0.257 0.299 0.412 1.347-1.287 3.192-2.162 4.739-1.030z">
            </path>
            <path
                d="M31.152 20.891h-14.016c-0.399 0-0.748 0.36-0.748 0.772s0.349 0.772 0.748 0.772h0.15v1.287c0 2.008 1.596 3.655 3.542 3.655h6.734c1.945 0 3.541-1.647 3.541-3.655v-1.287h0.15c0.399 0 0.748-0.36 0.748-0.772-0.1-0.463-0.449-0.772-0.848-0.772z">
            </path>
            <path
                d="M22.223 11.933l0.050-0.463c0-0.154-0.050-0.257-0.2-0.257s-0.249 0.052-0.249 0.206l-0.050 0.463c0 0.154 0.050 0.257 0.2 0.257 0.1 0 0.2-0.103 0.249-0.206z">
            </path>
            <path
                d="M21.625 12.551l-0.050 0.463c0 0.154 0.050 0.257 0.2 0.257s0.249-0.052 0.249-0.206l0.050-0.463c0-0.154-0.050-0.257-0.2-0.257-0.1 0-0.2 0.103-0.249 0.206z">
            </path>
            <path
                d="M23.321 12.139c0.15 0 0.249-0.103 0.249-0.257v-0.515c0-0.154-0.1-0.257-0.249-0.257s-0.249 0.103-0.249 0.257v0.515c0 0.103 0.15 0.257 0.249 0.257z">
            </path>
            <path
                d="M23.021 13.066c0 0.154 0.1 0.257 0.249 0.257s0.249-0.103 0.249-0.257v-0.515c0-0.154-0.1-0.257-0.249-0.257s-0.249 0.103-0.249 0.257v0.515z">
            </path>
            <path
                d="M24.668 11.161c-0.15 0-0.249 0.103-0.249 0.257v0.515c0 0.154 0.1 0.257 0.249 0.257s0.249-0.103 0.249-0.257v-0.515c0-0.154-0.1-0.257-0.249-0.257z">
            </path>
            <path
                d="M24.518 12.602v0.515c0 0.154 0.1 0.257 0.249 0.257s0.249-0.103 0.249-0.257v-0.515c0-0.154-0.1-0.257-0.249-0.257-0.2 0-0.299 0.103-0.249 0.257z">
            </path>
            <path
                d="M25.964 11.161c-0.15 0-0.2 0.154-0.2 0.257l0.050 0.463c0 0.103 0.1 0.206 0.249 0.206s0.249-0.154 0.249-0.309l-0.1-0.412c0-0.154-0.15-0.257-0.249-0.206z">
            </path>
            <path
                d="M25.915 12.654l0.050 0.463c0 0.103 0.15 0.206 0.249 0.206 0.15 0 0.249-0.154 0.2-0.257v-0.515c0-0.154-0.15-0.206-0.249-0.206-0.15 0.052-0.249 0.154-0.249 0.309z">
            </path>
        </symbol>
        <symbol id="icon-grooming" viewBox="0 0 32 32">
            <path
                d="M21.1 9.363c-0.085-0.371-0.316-0.65-0.633-0.765-0.023-0.008-0.047-0.009-0.070-0.016 0.228-1.036 0.87-4.801-1.234-7.004-1.219-1.277-3.121-1.782-5.651-1.504-0.046-0.019-0.097-0.030-0.149-0.031-1.987-0.064-3.508 0.484-4.504 1.626-1.953 2.238-1.246 6.013-1.042 6.908-0.030 0.008-0.061 0.010-0.090 0.020-0.318 0.115-0.549 0.394-0.633 0.765-0.076 0.331-0.033 0.712 0.118 1.075 0.278 0.665 0.841 1.090 1.381 1.090 0.058 0 0.115-0.005 0.172-0.015 0.458 1.357 1.223 2.486 2.487 3.179v1.392h-0.656v3.925h7.002v-3.925h-0.657v-1.383c1.266-0.692 2.031-1.824 2.489-3.187 0.056 0.010 0.113 0.014 0.17 0.014 0.54 0 1.103-0.425 1.381-1.089 0.151-0.363 0.194-0.745 0.118-1.075zM7.814 10.22c-0.105-0.251-0.137-0.518-0.088-0.732 0.039-0.169 0.125-0.289 0.236-0.33 0.030-0.011 0.063-0.016 0.098-0.016 0.063 0 0.133 0.018 0.205 0.051 0.074 0.599 0.179 1.18 0.326 1.731-0.247-0.005-0.594-0.269-0.776-0.705zM17.312 16.684c-0.643 0.629-1.84 1.052-3.215 1.052s-2.573-0.424-3.215-1.052h0.694c0.178 0 0.323-0.135 0.323-0.301v-1.392c0.63 0.241 1.362 0.392 2.215 0.432 0.839-0.040 1.56-0.188 2.182-0.425v1.385c0 0.166 0.145 0.301 0.323 0.301h0.694zM19.296 8.874c-0.021 0.185-0.043 0.37-0.069 0.547-0.067 0.453-0.153 0.88-0.258 1.284-0.040 0.152-0.084 0.299-0.13 0.444-0.396 1.263-1.020 2.247-1.984 2.876-0.142 0.093-0.296 0.174-0.454 0.251-0.633 0.312-1.384 0.503-2.289 0.546-0.902-0.043-1.653-0.23-2.287-0.537-0.168-0.081-0.331-0.168-0.483-0.267-0.966-0.63-1.591-1.612-1.988-2.872-0.046-0.145-0.090-0.291-0.13-0.444-0.105-0.403-0.191-0.829-0.258-1.281-0.027-0.178-0.048-0.362-0.069-0.547-0.057-0.495-0.098-1.013-0.122-1.556 0.076-0.441 0.186-0.807 0.318-1.107 0.199-0.031 0.628-0.118 1.133-0.334 0.080 0.102 0.215 0.167 0.353 0.158 0.072-0.003 1.024-0.054 2.030-0.421-0.005 0.042-0.002 0.086 0.009 0.129 0.043 0.168 0.203 0.288 0.389 0.292 0.086 0.003 1.797 0.022 2.853-1.101 0.407 0.908 1.322 2.395 3.187 3.328l0.278 0.357c-0.009 0.087-0.020 0.17-0.030 0.256zM20.379 10.22c-0.182 0.435-0.527 0.699-0.774 0.704 0.146-0.552 0.25-1.132 0.324-1.731 0.072-0.033 0.142-0.050 0.205-0.050 0.035 0 0.068 0.005 0.098 0.016 0.152 0.055 0.213 0.23 0.236 0.33 0.049 0.214 0.016 0.481-0.089 0.732zM13.364 11.002v-0.843c0-0.166 0.145-0.301 0.323-0.301s0.323 0.135 0.323 0.301v0.775h0.497c0.178 0 0.323 0.135 0.323 0.301s-0.145 0.301-0.323 0.301h-0.57c-0.316 0-0.573-0.239-0.573-0.533zM11.819 9.069c0 0.323-0.282 0.585-0.629 0.585s-0.629-0.262-0.629-0.585c0-0.323 0.282-0.585 0.629-0.585s0.629 0.262 0.629 0.585zM17.633 9.069c0 0.323-0.282 0.585-0.629 0.585s-0.629-0.262-0.629-0.585c0-0.323 0.282-0.585 0.629-0.585s0.629 0.262 0.629 0.585zM15.679 12.854c0 0.485-0.817 0.658-1.582 0.658s-1.582-0.173-1.582-0.658c0-0.166 0.145-0.301 0.323-0.301 0.144 0 0.266 0.088 0.308 0.209 0.108 0.060 0.448 0.149 0.951 0.149s0.843-0.089 0.951-0.149c0.042-0.121 0.164-0.209 0.308-0.209 0.178 0 0.323 0.135 0.323 0.301zM31.891 22.231c-0.093-0.152-0.237-0.265-0.409-0.331 0.027-0.165 0-0.339-0.095-0.496-0.093-0.152-0.237-0.265-0.409-0.33 0.027-0.165 0-0.339-0.095-0.496s-0.243-0.267-0.409-0.33c0.027-0.165 0.001-0.34-0.095-0.496-0.11-0.18-0.288-0.308-0.502-0.363-0.212-0.054-0.437-0.029-0.63 0.073l-0.328 0.173c-0.062-0.095-0.145-0.18-0.246-0.252v-0.329h1.831c0.178 0 0.323-0.135 0.323-0.301s-0.145-0.301-0.323-0.301h-1.831v-0.301h1.831c0.178 0 0.323-0.135 0.323-0.301s-0.145-0.301-0.323-0.301h-1.831v-0.301h1.831c0.178 0 0.323-0.135 0.323-0.301s-0.145-0.301-0.323-0.301h-1.831v-0.301h1.831c0.178 0 0.323-0.135 0.323-0.301s-0.145-0.301-0.323-0.301h-1.831l0.002-0.301h1.829c0.178 0 0.323-0.135 0.323-0.301s-0.145-0.301-0.323-0.301h-1.829c-0.364 0-0.648 0.308-0.648 0.701v1.448c-0.028-0.342-0.164-0.685-0.404-0.98-0.59-0.728-1.602-0.947-2.253-0.489-0.34 0.239-0.512 0.615-0.519 1.023-0.424-0.105-0.861-0.054-1.2 0.184-0.327 0.23-0.519 0.603-0.526 1.023-0.006 0.389 0.141 0.789 0.415 1.127s0.648 0.579 1.052 0.68c0.135 0.034 0.27 0.050 0.402 0.050 0.295 0 0.573-0.082 0.799-0.241 0.021-0.015 0.037-0.035 0.057-0.051l1.014 1.131-0.366 0.734c-0.028 0.045-0.053 0.091-0.076 0.139l-2.131 1.125-3.636-5.555c-0.089-0.136-0.198-0.253-0.314-0.36-0.192-0.231-0.47-0.396-0.793-0.449-0.314-0.097-0.648-0.128-0.98-0.076v4.029c0.079 0.023 0.152 0.056 0.216 0.101 0.119 0.083 0.206 0.2 0.242 0.338l1.59 6.197v-2.518l1.211 1.851c0.385 0.588 1.058 0.914 1.75 0.914 0.343 0 0.69-0.080 1.008-0.249l3.88-2.048c0.016-0.008 0.028-0.020 0.044-0.029 0.030 0.002 0.061 0.006 0.091 0.006 0.252 0 0.508-0.059 0.743-0.183l0.729-0.385 0.045 0.050c0.147 0.164 0.407 0.192 0.591 0.063l0.407-0.286c0.134-0.094 0.185-0.254 0.148-0.409l0.317-0.168c0.193-0.102 0.331-0.267 0.39-0.467s0.031-0.407-0.079-0.586zM30.011 20.843l0.059-0.031c0.028-0.014 0.059-0.022 0.090-0.022 0.016 0 0.033 0.002 0.049 0.006 0.048 0.012 0.087 0.041 0.111 0.080 0.050 0.082 0.019 0.187-0.069 0.233l-0.846 0.447c-0.043 0.022-0.092 0.027-0.139 0.016s-0.087-0.041-0.111-0.080c-0.050-0.082-0.019-0.187 0.069-0.233l0.787-0.416zM28.973 20.375l0.008-0.016c0.006-0.012 0.008-0.025 0.013-0.037 0.006-0.014 0.010-0.028 0.015-0.043l0.556-0.294c0.028-0.015 0.059-0.022 0.090-0.022 0.016 0 0.033 0.002 0.049 0.006 0.048 0.012 0.087 0.041 0.111 0.080 0.031 0.051 0.028 0.11 0.002 0.159-0.016 0.030-0.038 0.057-0.071 0.075l-0.846 0.447c-0.035 0.018-0.075 0.022-0.115 0.018l0.187-0.373zM25.273 18.735c-0.156 0.109-0.355 0.082-0.46 0.056-0.216-0.054-0.43-0.196-0.587-0.389s-0.244-0.423-0.241-0.632c0.002-0.101 0.028-0.286 0.184-0.396 0.078-0.055 0.175-0.081 0.279-0.081 0.253 0 0.555 0.152 0.767 0.413 0.299 0.369 0.325 0.839 0.058 1.027zM25.946 17.194c-0.299-0.368-0.325-0.839-0.057-1.027 0.078-0.055 0.174-0.081 0.279-0.081 0.253 0 0.555 0.153 0.767 0.414 0.157 0.193 0.245 0.423 0.242 0.631-0.002 0.101-0.028 0.286-0.184 0.396s-0.355 0.082-0.459 0.056c-0.216-0.054-0.43-0.196-0.587-0.389zM26.778 19.61c-0.147-0.182-0.109-0.44 0.087-0.577s0.473-0.101 0.62 0.081c0.052 0.064 0.072 0.137 0.080 0.21-0.121 0.073-0.223 0.172-0.287 0.298l-0.070 0.141c-0.158 0.026-0.326-0.025-0.43-0.153zM29.319 23.741l-0.296 0.156c-0.413 0.219-0.942 0.083-1.177-0.301l-0.799-1.308c-0.114-0.187-0.143-0.403-0.082-0.61l0.004-0.007 0.896-1.795c0.023-0.045 0.085-0.075 0.162-0.081 0.057-0.005 0.121 0.001 0.187 0.030s0.113 0.071 0.145 0.114c0.007 0.010 0.016 0.019 0.021 0.029 0.027 0.050 0.034 0.1 0.015 0.138l-0.793 1.584c-0.013 0.025-0.015 0.052-0.020 0.078-0.023 0.13 0.042 0.263 0.177 0.322 0.044 0.019 0.090 0.028 0.136 0.028s0.090-0.012 0.132-0.029v1.428c0 0.166 0.145 0.301 0.323 0.301s0.323-0.135 0.323-0.301v-1.043l0.979 1.092-0.333 0.176zM29.91 22.382c-0.043 0.022-0.093 0.029-0.139 0.016s-0.087-0.041-0.111-0.080c-0.050-0.082-0.019-0.187 0.069-0.233l0.846-0.447c0.028-0.015 0.059-0.022 0.090-0.022 0.016 0 0.033 0.002 0.049 0.006 0.047 0.012 0.087 0.041 0.111 0.080 0.050 0.082 0.019 0.187-0.069 0.233l-0.846 0.447zM31.347 22.658c-0.013 0.044-0.044 0.081-0.086 0.103 0 0 0 0-0 0l-0.845 0.447c-0.038 0.021-0.081 0.024-0.122 0.018-0.052-0.009-0.101-0.036-0.129-0.082-0.050-0.082-0.019-0.187 0.069-0.233l0.846-0.447c0.028-0.014 0.059-0.022 0.090-0.022 0.005 0 0.010 0.002 0.015 0.002 0.011 0.001 0.023 0.002 0.034 0.004 0.048 0.012 0.087 0.041 0.111 0.081s0.030 0.085 0.017 0.13zM20.551 31.361l-0.18-3.894c-0.001-0.010-0.002-0.020-0.005-0.031l-1.761-6.865c-0.006-0.026-0.020-0.049-0.038-0.070-0.048-0.057-0.131-0.094-0.224-0.094h-8.492c-0.093 0-0.176 0.037-0.224 0.094-0.018 0.021-0.032 0.044-0.038 0.070l-1.546 6.030-0.241-0.126c-0.051-0.026-0.102-0.047-0.152-0.068l1.52-5.928c0.035-0.138 0.123-0.255 0.242-0.338 0.064-0.044 0.137-0.078 0.215-0.1v-4.014c-0.754-0.227-1.614-0.035-2.17 0.555l-6.948 7.366c-0.385 0.409-0.565 0.951-0.493 1.49s0.389 1.025 0.87 1.333l3.986 2.555c0.124 0.080 0.256 0.14 0.391 0.191 0.163 0.174 0.357 0.323 0.577 0.437l1.815 0.941c0.004 0.002 0.008 0.002 0.011 0.004l-0.022 0.464-0.020 0.431c-0.003 0.059 0.029 0.102 0.056 0.128 0.051 0.050 0.129 0.079 0.211 0.079h12.414c0.083 0 0.16-0.029 0.212-0.079 0.027-0.026 0.058-0.070 0.056-0.128l-0.020-0.431zM5.103 24.849l2.477-2.625v4.154c-0.081-0.031-0.163-0.055-0.244-0.076-0.048-0.037-0.089-0.078-0.141-0.112l-2.091-1.341zM9.953 28.41c-0.029 0.049-0.098 0.067-0.15 0.040-0 0-0 0-0 0l-1.469-0.761c-0.081-0.042-0.177-0.040-0.264-0.008-0.079 0.028-0.149 0.080-0.191 0.149s-0.053 0.152-0.029 0.229c0.023 0.077 0.079 0.142 0.154 0.181l0.001 0.001 1.759 0.912c0.034 0.018 0.047 0.046 0.052 0.061s0.010 0.046-0.009 0.078c-0.019 0.032-0.049 0.043-0.066 0.048s-0.050 0.009-0.084-0.009l-1.76-0.913c-0.036-0.018-0.075-0.027-0.114-0.030-0.070-0.005-0.14 0.015-0.203 0.049-0.006 0.003-0.012 0.006-0.018 0.009-0.048 0.030-0.092 0.066-0.12 0.112-0.042 0.070-0.052 0.152-0.029 0.229 0.020 0.066 0.067 0.119 0.126 0.159 0.010 0.007 0.017 0.016 0.028 0.022l1.469 0.761c0.034 0.018 0.047 0.046 0.052 0.062s0.010 0.045-0.009 0.078c-0.019 0.032-0.049 0.044-0.066 0.048s-0.049 0.009-0.084-0.009l-1.633-0.846c-0.102-0.053-0.259-0.032-0.359 0.025-0.097 0.056-0.155 0.156-0.152 0.262 0.002 0.056 0.022 0.108 0.053 0.154 0.028 0.041 0.066 0.077 0.113 0.101l1.125 0.583c0.034 0.018 0.047 0.046 0.052 0.061s0.010 0.046-0.009 0.078c-0.029 0.049-0.098 0.068-0.15 0.040l-1.815-0.941c-0.301-0.156-0.538-0.405-0.667-0.702-0.175-0.402-0.155-0.841 0.053-1.175 0.253-0.406 0.74-0.707 1.282-0.707 0.22 0 0.448 0.051 0.674 0.162 0.006 0.003 0.013 0.005 0.020 0.009l2.395 1.256c0.034 0.018 0.047 0.047 0.052 0.062s0.010 0.046-0.009 0.077zM17.943 26.919c-0.009 0.528-0.557 0.759-0.836 0.351l-0.281-0.41c-0.075 0.243-0.188 0.471-0.336 0.679 0.001 0.032 0.005 0.064 0.005 0.097 0 1.363-1.073 2.468-2.398 2.468s-2.398-1.105-2.398-2.468c0-0.033 0.003-0.064 0.005-0.097-0.147-0.208-0.261-0.436-0.336-0.679l-0.281 0.41c-0.279 0.408-0.827 0.177-0.837-0.351-0.004-0.247-0.014-0.503-0.031-0.754-0.061-0.881 1.229-1.295 1.81-1.436 0.517-0.346 1.251-0.501 2.068-0.501s1.551 0.156 2.068 0.501c0.581 0.141 1.871 0.555 1.81 1.436-0.018 0.251-0.027 0.507-0.032 0.754zM13.114 28.749c0-0.371 0.44-0.672 0.983-0.672s0.983 0.301 0.983 0.672c0 0.371-0.44 0.672-0.983 0.672s-0.983-0.301-0.983-0.672z">
            </path>
        </symbol>
        <symbol id="icon-nutrition" viewBox="0 0 32 32">
            <path
                d="M22.415 19.13c-0.748-0.148-1.489 0.341-1.801 1.188-0.061 0.164-0.102 0.335-0.126 0.507 0.772-0.462 1.447-1.018 2.030-1.674l-0.103-0.020z">
            </path>
            <path
                d="M23.109 10.926c1.403-1.12 1.801-3.423 0.888-5.144s-2.791-2.208-4.194-1.088-1.801 3.423-0.888 5.144c0.913 1.721 2.791 2.208 4.194 1.088z">
            </path>
            <path
                d="M28.673 11.865c-1.311-1.991-3.092-2.014-4.075-1.202s-0.911 2.874-0.090 4.259c0.037 0.076 0.077 0.156 0.116 0.235 0.283-1.053 0.323-1.818 0.323-1.828 0.029-0.893 0.62-1.591 1.345-1.591 0.017 0 0.034 0 0.051 0.001 0.742 0.033 1.324 0.801 1.297 1.712v0.003l-0.001 0.015c-0.022 0.51-0.164 2.343-1.067 4.522-0.082 0.2-0.179 0.419-0.29 0.651 0.189 0.443 0.371 0.896 0.537 1.356l-1.149-0.226c-0.777 1.277-1.966 2.726-3.738 3.861l5.138 5.216c0.314 0.319 0.695 0.475 1.073 0.475 0.484 0 0.965-0.255 1.298-0.749 0.593-0.879 0.493-2.181-0.224-2.909l-1.235-1.255 0.4 0.079c0.124 0.024 0.246 0.030 0.367 0.022 0.29 0.017 0.632-0.107 1.051-0.287 1.166-0.498 2.488-1.377 2.144-4.055-0.694-3.597-1.482-5.555-3.271-8.306z">
            </path>
            <path
                d="M26.332 17.84c0.97-2.342 1.033-4.28 1.039-4.402 0.022-0.73-0.442-1.343-1.037-1.37s-1.093 0.541-1.117 1.269l-0-0c-0.002 0.084-0.092 1.678-0.879 3.475-0.796 1.799-2.226 3.82-5.122 5.003-0.565 0.229-0.873 0.976-0.686 1.67 0.149 0.556 0.571 0.908 1.024 0.908 0.112 0 0.226-0.022 0.338-0.067 3.541-1.421 5.48-4.147 6.441-6.486z">
            </path>
            <path
                d="M12.134 24.129c0.49 0.114 1.080 0.302 1.236 0.505 0.42 0.543 0.625 1.665 1.169 1.744 0.38 0.055 0.514 0.045 0.985-0.328 0.465-0.369 0.023-1.805-0.088-2.357-0.157-0.783 0.218-1.643 0.224-1.696 0.005-0.044 0.328-0.875 1.262-0.559 0.326 0.111 0.135-0.629-0.376-0.999-0.608-0.439-1.047-0.234-1.492 0.193-0.858-0.805-2.202-0.648-2.966-0.297-0.122 0.61-0.169 1.201-0.169 1.744-0 0.826 0.107 1.542 0.215 2.050zM14.312 22.392c0.2-0.167 0.472-0.104 0.609 0.141s0.084 0.579-0.115 0.746c-0.2 0.167-0.472 0.104-0.609-0.141s-0.085-0.579 0.115-0.746z">
            </path>
            <path
                d="M11.538 20.316c-0.199 0.003-0.388-0.004-0.569-0.021-0.063-0.019-0.129-0.031-0.197-0.027-0.004 0-0.008 0.002-0.012 0.002-2.749-0.383-3.497-2.933-6.708-0.287-0.97-0.35-2.126-1.101-3.002-2.705-0.177-0.322-0.533-0.407-0.796-0.19-0.263 0.217-0.333 0.654-0.155 0.976 0.833 1.51 1.863 2.395 2.829 2.913-0.011 0.029-0.023 0.064-0.035 0.097-0.248 0.457-0.442 1.059-0.568 1.861-0.018 0.117-0.804 6.273 0.431 6.273s1.574-4.656 2.264-5.253c0.097 0.011 1.929 2.365 3.494 2.069 0.367-0.070 0.863-0.347 1.277-0.643l0.677 3.324c0.076 0.373 0.348 0.626 0.653 0.626 0.033 0 0.067-0.003 0.101-0.009 0.344-0.063 0.591-0.435 0.573-0.86l-0.176-4.139c-0.118-0.552-0.238-1.333-0.238-2.246 0-0.549 0.044-1.144 0.158-1.763z">
            </path>
            <path
                d="M17.55 28.446h-0.17l-0.347-1.319h-3.889l-0.347 1.319h-0.17c-0.137 0-0.248 0.136-0.248 0.305s0.111 0.304 0.248 0.304h4.923c0.137 0 0.248-0.136 0.248-0.304s-0.111-0.305-0.248-0.305z">
            </path>
        </symbol>
        <symbol id="icon-training" viewBox="0 0 32 32">
            <path
                d="M6.231 25.595l1.154-3.878-0.42-1.144c-0.891-0.149-1.626-0.597-2.098-1.193l-1.573 5.221-3.094 5.221c-0.42 0.696-0.157 1.591 0.577 1.989s1.678 0.149 2.098-0.547l3.251-5.37c0.052-0.099 0.105-0.199 0.105-0.298z">
            </path>
            <path
                d="M1.090 14.764c0.483 0.253 1.126 0.051 1.394-0.456l2.413-4.658 0.429-0.304 0.215-1.266c0.107-0.658 0.429-1.266 0.858-1.772l-2.896 1.772c-0.161 0.101-0.268 0.253-0.375 0.405l-2.521 4.911c-0.268 0.506-0.054 1.114 0.483 1.367z">
            </path>
            <path
                d="M10.338 5.408c1.631 0 2.954-1.211 2.954-2.704s-1.322-2.704-2.954-2.704c-1.631 0-2.954 1.211-2.954 2.704s1.322 2.704 2.954 2.704z">
            </path>
            <path
                d="M28.969 25.591c0 0 0.052 0.050 0.052 0.1 0.418-0.249 0.575-0.797 0.575-0.797 1.569 0.448 1.883-0.946 1.883-0.946 0.209-0.398-0.837-0.797-0.837-0.797-0.052-0.996-1.255-1.295-1.255-1.295-0.575-0.498-0.418 0-0.418 0-0.575-0.050-0.942 0.149-0.942 0.149-0.942-0.847-1.517 0.448-1.517 0.448-0.157 0-0.262 0.050-0.418 0.050 0.942 1.195 1.935 2.241 2.877 3.088z">
            </path>
            <path
                d="M30.429 28.782c-0.272-0.252-2.227-1.362-2.227-1.362 0.435-0.202 0.489-1.059 0.489-1.362-1.032-0.908-2.119-2.068-3.205-3.379-0.543 0.101-4.129 1.513-7.606 0.050-1.304-0.555-2.445 0.252-2.445 0.252-0.978 1.059-0.543 2.774-0.543 2.774l1.358-1.362c0.706-0.504 0.978-0.403 1.141-0.151 0.109 0.202 0.054 0.454-0.109 0.656-1.304 1.261-0.869 2.572-0.869 2.572l-1.847 1.513c-0.706 0.706 0.109 1.261 0.109 1.261 0.163-0.555 1.467-1.412 1.467-1.412-0.054 0.656 0.272 0.807 0.272 0.807 0.924-0.252 0.706-1.11 0.706-1.11 1.467-0.050 1.63-0.656 1.63-0.656 1.467 0.252 2.173-0.656 2.173-0.656 0.38 0.656 3.694 1.362 3.694 1.362 0.217 0.101 1.467 2.421 1.467 2.421 0.272 0.050 0.543 0.404 0.543 0.404 0.598 0.353 1.847-0.050 1.847-0.050-0.109-0.454-0.761-0.454-0.761-0.454-1.467 0-1.25-2.27-1.25-2.27 0.054-0.303 1.195 0.252 1.195 0.252l2.499 0.857c1.25 0.605 1.793-0.101 1.793-0.101 0.38-0.555-1.521-0.857-1.521-0.857z">
            </path>
            <path
                d="M18.215 11.014c1.241 2.511 3.884 7.484 7.283 11.521 0.162-0.049 0.378-0.049 0.593-0.098-0.054-0.049-0.108-0.098-0.162-0.197-3.399-3.988-6.043-8.961-7.23-11.423-0.216 0.148-0.432 0.197-0.486 0.197z">
            </path>
            <path
                d="M18.48 10.434c0.543-0.2 0.869-0.748 0.652-1.247s-0.814-0.798-1.357-0.599l-2.932 0.948c-3.421-2.944-3.584-3.443-4.941-3.642-1.738-0.249-3.367 0.898-3.638 2.495l-1.303 8.382c-0.271 1.597 0.977 3.093 2.715 3.343 0.054 0 0.109 0 0.163 0l1.412 3.892-2.878 3.892c-0.489 0.649-0.326 1.597 0.434 2.046 0.706 0.449 1.738 0.299 2.226-0.399l3.366-4.49c0.271-0.399 0.38-0.848 0.217-1.297l-1.792-4.939c0.271-0.349 0.489-0.798 0.543-1.247l1.195-7.434 1.357 1.197c0.271 0.249 0.706 0.349 1.086 0.2l3.475-1.098z">
            </path>
        </symbol>
    </defs>
</svg>